<?xml version="1.0" encoding="utf-8"?>
<!-- Generator: Adobe Illustrator 25.2.0, SVG Export Plug-In . SVG Version: 6.00 Build 0)  -->
<svg version="1.1" id="icon" xmlns="http://www.w3.org/2000/svg" xmlns:xlink="http://www.w3.org/1999/xlink" x="0px" y="0px"
	 viewBox="0 0 32 32" style="enable-background:new 0 0 32 32;" xml:space="preserve">
<style type="text/css">
	.st0{fill:none;}
	.st1{fill:#00FFFF;}
	.st2{fill:#FF00FF;}
	.st3{fill:#0000FF;}
	.st4{fill:#FFFF00;}
	.st5{fill:#00FF00;}
	.st6{fill:#FF0000;}
</style>
<rect y="0" class="st0" width="32" height="32"/>
<g>
	<path class="st1" d="M16.4,13.3c1.5-1,3.2-1.6,5.2-1.6c1.2,0,2.4,0.2,3.4,0.7c0.1-0.4,0.1-0.8,0.1-1.2C25.1,6.1,21,2,15.9,2
		c-5.1,0-9.2,4.1-9.2,9.2c0,0.3,0,0.5,0,0.8c1.1-0.5,2.4-0.8,3.7-0.8C12.7,11.1,14.8,12,16.4,13.3z"/>
	<path class="st2" d="M12.4,20.9c0-0.4,0-0.8,0.1-1.2c-3.1-1.3-5.4-4.2-5.7-7.7c-3.2,1.4-5.5,4.6-5.5,8.4c0,5.1,4.1,9.2,9.2,9.2
		c1.9,0,3.7-0.6,5.2-1.6C13.6,26.2,12.4,23.7,12.4,20.9z"/>
	<path class="st3" d="M12.5,19.6c0.4-2.6,1.8-4.9,3.9-6.3c-1.6-1.4-3.7-2.2-5.9-2.2c-1.3,0-2.5,0.3-3.7,0.8
		C7.1,15.4,9.3,18.3,12.5,19.6z"/>
	<path class="st4" d="M25,12.4c-0.4,3.2-2.5,5.9-5.4,7.1c0,0.3,0,0.5,0,0.8c0,3.1-1.6,5.9-4,7.6c1.6,1.4,3.7,2.2,5.9,2.2
		c5.1,0,9.2-4.1,9.2-9.2C30.7,17,28.3,13.7,25,12.4z"/>
	<path class="st5" d="M16.4,13.3c1.8,1.5,3,3.7,3.2,6.2c2.9-1.3,5-3.9,5.4-7.1c-1.1-0.4-2.2-0.7-3.4-0.7
		C19.6,11.7,17.8,12.3,16.4,13.3z"/>
	<path class="st6" d="M19.6,20.3c0-0.3,0-0.5,0-0.8c-1.1,0.5-2.4,0.8-3.7,0.8c-1.2,0-2.4-0.2-3.4-0.7c-0.1,0.4-0.1,0.8-0.1,1.2
		c0,2.8,1.3,5.3,3.2,7C18,26.2,19.6,23.4,19.6,20.3z"/>
	<path d="M16.4,13.3c-2.1,1.4-3.5,3.7-3.9,6.3c1.1,0.4,2.2,0.7,3.4,0.7c1.3,0,2.5-0.3,3.7-0.8C19.4,17,18.2,14.8,16.4,13.3z"/>
</g>
</svg>
